REM DIRINDEX 1\2\6,1\2\7,1\2\8,1\2\9,1\3\10,1\3\11,1\4\12,1\4\13,1\4\14,1\5\15,1\5\16,1\5\17
REM DIRNAME folder01,folder02,folder03,folder04,folder05,folder06,folder07,folder08,folder09,folder10,folder11,folder12,folder13,folder14,folder15,folder16,folder17
TITLE ""
FILE "1400_2_sec04_0368_0384.mp3" MP3
  TRACK 01 AUDIO
    TITLE "0:"
    INDEX 01 00:00:00
  TRACK 02 AUDIO
    TITLE "13:cjc029_2315"
    INDEX 01 00:00:17
  TRACK 03 AUDIO
    TITLE "0:"
    INDEX 01 00:01:26
  TRACK 04 AUDIO
    TITLE "14:cjc029_2316"
    INDEX 01 00:01:32
  TRACK 05 AUDIO
    TITLE "0:"
    INDEX 01 00:04:03
  TRACK 06 AUDIO
    TITLE "13:cjc029_2317"
    INDEX 01 00:04:58
  TRACK 07 AUDIO
    TITLE "0:"
    INDEX 01 00:05:59
  TRACK 08 AUDIO
    TITLE "14:cjc029_2318"
    INDEX 01 00:05:63
  TRACK 09 AUDIO
    TITLE "0:"
    INDEX 01 00:09:71
  TRACK 10 AUDIO
    TITLE "13:cjc029_2319"
    INDEX 01 00:10:55
  TRACK 11 AUDIO
    TITLE "0:"
    INDEX 01 00:11:66
  TRACK 12 AUDIO
    TITLE "14:cjc029_2320"
    INDEX 01 00:11:70
  TRACK 13 AUDIO
    TITLE "0:"
    INDEX 01 00:13:00
  TRACK 14 AUDIO
    TITLE "13:cjc029_2321"
    INDEX 01 00:13:55
  TRACK 15 AUDIO
    TITLE "0:"
    INDEX 01 00:15:03
  TRACK 16 AUDIO
    TITLE "14:cjc029_2322"
    INDEX 01 00:15:11
  TRACK 17 AUDIO
    TITLE "0:"
    INDEX 01 00:17:27
  TRACK 18 AUDIO
    TITLE "13:cjc029_2323"
    INDEX 01 00:18:09
  TRACK 19 AUDIO
    TITLE "0:"
    INDEX 01 00:19:18
  TRACK 20 AUDIO
    TITLE "14:cjc029_2324"
    INDEX 01 00:19:22
  TRACK 21 AUDIO
    TITLE "0:"
    INDEX 01 00:20:36
  TRACK 22 AUDIO
    TITLE "13:cjc029_2325"
    INDEX 01 00:21:17
  TRACK 23 AUDIO
    TITLE "0:"
    INDEX 01 00:22:38
  TRACK 24 AUDIO
    TITLE "14:cjc029_2326"
    INDEX 01 00:22:42
  TRACK 25 AUDIO
    TITLE "0:"
    INDEX 01 00:23:65
  TRACK 26 AUDIO
    TITLE "13:cjc029_2327"
    INDEX 01 00:24:51
  TRACK 27 AUDIO
    TITLE "0:"
    INDEX 01 00:25:54
  TRACK 28 AUDIO
    TITLE "14:cjc029_2328"
    INDEX 01 00:25:60
  TRACK 29 AUDIO
    TITLE "0:"
    INDEX 01 00:28:57
  TRACK 30 AUDIO
    TITLE "13:cjc029_2329"
    INDEX 01 00:29:38
  TRACK 31 AUDIO
    TITLE "0:"
    INDEX 01 00:30:57
  TRACK 32 AUDIO
    TITLE "14:cjc029_2330"
    INDEX 01 00:30:63
  TRACK 33 AUDIO
    TITLE "0:"
    INDEX 01 00:34:47
  TRACK 34 AUDIO
    TITLE "13:cjc029_2331"
    INDEX 01 00:35:29
  TRACK 35 AUDIO
    TITLE "0:"
    INDEX 01 00:36:48
  TRACK 36 AUDIO
    TITLE "14:cjc029_2332"
    INDEX 01 00:36:52
  TRACK 37 AUDIO
    TITLE "0:"
    INDEX 01 00:39:11
  TRACK 38 AUDIO
    TITLE "12:cjc029_2333"
    INDEX 01 00:40:58
  TRACK 39 AUDIO
    TITLE "0:"
    INDEX 01 00:42:27
  TRACK 40 AUDIO
    TITLE "13:cjc029_2334"
    INDEX 01 00:43:29
  TRACK 41 AUDIO
    TITLE "0:"
    INDEX 01 00:44:63
  TRACK 42 AUDIO
    TITLE "14:cjc029_2335"
    INDEX 01 00:44:69
  TRACK 43 AUDIO
    TITLE "0:"
    INDEX 01 00:48:20
  TRACK 44 AUDIO
    TITLE "13:cjc029_2336"
    INDEX 01 00:49:14
  TRACK 45 AUDIO
    TITLE "0:"
    INDEX 01 00:50:33
  TRACK 46 AUDIO
    TITLE "14:cjc029_2337"
    INDEX 01 00:50:37
  TRACK 47 AUDIO
    TITLE "0:"
    INDEX 01 00:53:33
  TRACK 48 AUDIO
    TITLE "13:cjc029_2338"
    INDEX 01 00:54:15
  TRACK 49 AUDIO
    TITLE "0:"
    INDEX 01 00:55:53
  TRACK 50 AUDIO
    TITLE "14:cjc029_2339"
    INDEX 01 00:55:59
  TRACK 51 AUDIO
    TITLE "0:"
    INDEX 01 00:58:44
  TRACK 52 AUDIO
    TITLE "13:cjc029_2340"
    INDEX 01 00:59:34
  TRACK 53 AUDIO
    TITLE "0:"
    INDEX 01 01:00:47
  TRACK 54 AUDIO
    TITLE "14:cjc029_2341"
    INDEX 01 01:00:49
  TRACK 55 AUDIO
    TITLE "0:"
    INDEX 01 01:03:71
  TRACK 56 AUDIO
    TITLE "13:cjc029_2342"
    INDEX 01 01:04:52
  TRACK 57 AUDIO
    TITLE "0:"
    INDEX 01 01:05:71
  TRACK 58 AUDIO
    TITLE "14:cjc029_2343"
    INDEX 01 01:06:06
  TRACK 59 AUDIO
    TITLE "0:"
    INDEX 01 01:10:08
  TRACK 60 AUDIO
    TITLE "13:cjc029_2344"
    INDEX 01 01:10:67
  TRACK 61 AUDIO
    TITLE "0:"
    INDEX 01 01:12:11
  TRACK 62 AUDIO
    TITLE "14:cjc029_2345"
    INDEX 01 01:12:17
  TRACK 63 AUDIO
    TITLE "0:"
    INDEX 01 01:17:59
  TRACK 64 AUDIO
    TITLE "13:cjc029_2346"
    INDEX 01 01:18:41
  TRACK 65 AUDIO
    TITLE "0:"
    INDEX 01 01:19:56
  TRACK 66 AUDIO
    TITLE "14:cjc029_2347"
    INDEX 01 01:19:62
  TRACK 67 AUDIO
    TITLE "0:"
    INDEX 01 01:21:08
  TRACK 68 AUDIO
    TITLE "13:cjc029_2348"
    INDEX 01 01:21:65
  TRACK 69 AUDIO
    TITLE "0:"
    INDEX 01 01:23:05
  TRACK 70 AUDIO
    TITLE "14:cjc029_2349"
    INDEX 01 01:23:15
  TRACK 71 AUDIO
    TITLE "0:"
    INDEX 01 01:24:36
